# xmcd
#
# Track frame offsets:
#	150
#	12140
#	23698
#	36360
#	45096
#	55796
#	65498
#	80149
#	92680
#	103487
#	116067
#	125788
#
# Disc length: 1894 seconds
#
# Revision: 0
# Processed by: cddbd v1.5.2PL0 Copyright (c) Steve Scherf et al.
# Submitted via: EasyCDDAExtractor 10.0.6.1
#
DISCID=9e07640c
DTITLE=The Ryeholler Boys - Ist Ever
DYEAR=1900
DGENRE=Bluegrass
TTITLE0=Foggy Mountain Breakdown
TTITLE1=Blue Ridge Cabin Home
TTITLE2=Sunny Side Of The Mountain
TTITLE3=Down The Road
TTITLE4=How Mountain Girls Can Love
TTITLE5=Ready To Go
TTITLE6=Will The Circle Be Unbroken
TTITLE7=Fox On The Run
TTITLE8=Deep Creek
TTITLE9=Lomesome Road Blues
TTITLE10=Salty Dog
TTITLE11=Rocky Top
EXTD=
EXTT0=
EXTT1=
EXTT2=
EXTT3=
EXTT4=
EXTT5=
EXTT6=
EXTT7=
EXTT8=
EXTT9=
EXTT10=
EXTT11=
PLAYORDER=
